<?xml version="1.0" encoding="utf-8"?>
<!-- Generator: Adobe Illustrator 19.1.1, SVG Export Plug-In . SVG Version: 6.00 Build 0)  -->
<svg version="1.1" xmlns="http://www.w3.org/2000/svg" xmlns:xlink="http://www.w3.org/1999/xlink" x="0px" y="0px"
	 viewBox="0 0 566.9 566.9" style="enable-background:new 0 0 566.9 566.9;" xml:space="preserve">
<style type="text/css">
	.st0{fill:#299C3E;}
	.st1{fill:#747A84;}
	.st2{fill:#5B626C;}
	.st3{fill:#78559F;}
	.st4{font-family:'Calibri';}
	.st5{font-size:14.0658px;}
	.st6{font-family:'Calibri-Bold';}
	.st7{font-size:76.533px;}
	.st8{fill:#C7C6C6;}
	.st9{fill:#575756;}
	.st10{fill:#EDEDED;}
	.st11{fill:#FCFCFC;}
	.st12{opacity:0.6;fill:#3AAA35;}
	.st13{fill:#CA9E67;}
	.st14{fill:#FFFFFF;}
</style>
<g id="Fond">
</g>
<g id="Hexagone">
	<path class="st0" d="M282.3,566.9L36.8,425.2V141.7L282.3,0l245.5,141.7v283.5L282.3,566.9z M51.8,416.6l230.6,133.1l230.6-133.1
		V150.4L282.3,17.2L51.8,150.4V416.6z"/>
</g>
<g id="Texte">
	<g>
		<text transform="matrix(0.866 -0.5 0.5 0.866 283.5039 537.3884)" class="st0 st4 st5">github.com/TanguyBarthelemy/IssueTrackeR</text>
	</g>
	<g>
		<text transform="matrix(0.8643 0.503 -0.503 0.8643 258.4881 78.7713)"><tspan x="0" y="0" class="st0 st6 st7">I</tspan><tspan x="20.4" y="0" class="st0 st4 st7">ssue</tspan></text>
	</g>
	<g>
		<text transform="matrix(0.8643 0.503 -0.503 0.8643 56.6944 398.314)"><tspan x="0" y="0" class="st0 st6 st7">T</tspan><tspan x="37.9" y="0" class="st0 st4 st7">racke</tspan><tspan x="206.5" y="0" class="st0 st6 st7">R</tspan></text>
	</g>
</g>
<g id="Robot">
	<g>
		<g>
			<path class="st8" d="M195.8,287.1c-6.7,3.9-9.4,10-11.5,14.9c-1.5,3.5-2.9,6.6-5.5,9c-2.2,2-5,3.2-8.7,3.8
				c-5.4,0.9-12.4,0.4-20.8-1.6l-3.1,13.5c6.7,1.6,12.9,2.3,18.4,2.3c2.8,0,5.4-0.2,7.9-0.6c6.3-1.1,11.6-3.5,15.8-7.2
				c4.8-4.4,7.1-9.6,8.9-13.7c3-6.9,3.9-7.5,5.8-8.5c5.6-2.8,14.8,0.8,15.5,1.1c0.1,0,0.2,0.1,0.3,0.1c2.2,0.8,4,1.1,5.4,1.3
				c0-4.7,0-9.4,0-14.1C212.6,283,203.1,282.8,195.8,287.1z"/>
			<path class="st9" d="M164.5,329.6c-5.5,0-11.7-0.8-18.5-2.4l-0.5-0.1l3.3-14.5l0.5,0.1c8.3,1.9,15.3,2.4,20.6,1.6
				c3.6-0.6,6.4-1.8,8.5-3.7c2.5-2.3,3.8-5.3,5.4-8.8c2.1-4.9,4.8-11.1,11.7-15.1c7.5-4.4,17.1-4.3,28.7,0.3l0.3,0.1l0,15l-0.5-0.1
				c-1.9-0.2-3.7-0.6-5.5-1.3l-0.3-0.1c-1-0.4-9.9-3.7-15.1-1.1c-1.7,0.9-2.5,1.3-5.5,8.2c-1.8,4.2-4.1,9.5-9,13.9
				c-4.2,3.8-9.6,6.3-16,7.3C170,329.4,167.3,329.6,164.5,329.6z M146.7,326.4c9.9,2.2,18.5,2.8,25.6,1.6c6.2-1,11.4-3.4,15.5-7.1
				c4.8-4.3,7-9.4,8.8-13.6c3-7,4-7.7,6-8.7c5.5-2.8,14.2,0.4,16,1.1l0.3,0.1c1.6,0.6,3.1,1,4.7,1.2l0-13.2
				c-11.1-4.4-20.4-4.5-27.5-0.3l-0.2-0.4l0.2,0.4c-6.6,3.9-9.2,9.9-11.3,14.7c-1.6,3.6-2.9,6.7-5.6,9.1c-2.2,2-5.2,3.3-9,4
				c-5.4,0.9-12.3,0.4-20.5-1.5L146.7,326.4z"/>
		</g>
		<g>
			<path class="st8" d="M166.8,244.4c4.3,6.8,9.6,12.7,15.9,17.6c5.1,3.9,10.8,7.2,17,9.7c10.4,4.2,19.1,5.1,21.5,5.3l1-13.8
				c-2.9-0.2-28.9-2.7-43.7-26.2c-6.1-9.8-8.9-20.8-8.3-32.8c0.5-9.3,2.9-16.1,3.4-17.3l-13-4.9c-0.9,2.3-3.7,10.5-4.3,21.6
				c-0.3,6.6,0.2,13.1,1.6,19.3C159.6,230.4,162.6,237.7,166.8,244.4z"/>
			<path class="st9" d="M221.7,277.5l-0.5,0c-2.4-0.2-11.2-1.1-21.7-5.3c-6.2-2.5-12-5.8-17.1-9.8c-6.3-4.9-11.7-10.9-16-17.7
				c-4.2-6.7-7.3-14.1-9-21.8c-1.4-6.2-1.9-12.8-1.6-19.4c0.6-11.1,3.4-19.4,4.3-21.7l0.2-0.5l13.9,5.3L174,187
				c-0.5,1.3-2.9,8-3.4,17.2c-0.6,11.9,2.2,22.9,8.3,32.5c14.6,23.3,40.4,25.7,43.3,25.9l0.5,0L221.7,277.5z M160.9,182.6
				c-1,2.8-3.5,10.6-4.1,20.9c-0.3,6.5,0.2,13,1.5,19.1c1.7,7.6,4.6,14.8,8.8,21.5c4.2,6.7,9.6,12.6,15.8,17.4
				c5.1,3.9,10.7,7.2,16.9,9.7c9.7,4,18,5,20.9,5.2l0.9-12.9c-4.6-0.4-29.3-3.7-43.6-26.4c-6.2-9.8-9-21-8.4-33.1
				c0.4-8.5,2.5-15,3.2-17L160.9,182.6z"/>
		</g>
		<g>
			<path class="st8" d="M348.8,260.8c6.4-4.5,9.4-10.1,12.3-15.4c2.4-4.4,4.8-8.9,9.5-13.7c5.5-5.7,12.5-10.1,20.7-13l-4.7-13
				c-10.2,3.7-18.9,9.2-25.9,16.4c-6,6.2-9.2,12.1-11.7,16.8c-2.5,4.7-4.3,8-8.1,10.6c-4.4,3.1-9.2,3.5-11.4,3.7
				c-1.6,0.1-4.6,0.4-15.2-1.3c-4.7-0.8-8.6-1.6-11.2-2.1c2.5,5.2,5,10.3,7.5,15.5c5.7,1.3,11,1.9,15.9,1.9
				C335.3,267.1,342.8,265,348.8,260.8z"/>
			<path class="st9" d="M326.5,267.6c-4.9,0-10.3-0.7-16-1.9l-0.2-0.1l-8-16.6l1,0.2c3.6,0.8,7.4,1.5,11.1,2.1
				c10.6,1.7,13.5,1.5,15.1,1.3c2-0.2,6.8-0.6,11.1-3.6c3.6-2.5,5.4-5.9,7.9-10.5c2.6-4.8,5.7-10.7,11.8-16.9
				c7.1-7.3,15.8-12.8,26.1-16.5l0.5-0.2l5,14l-0.5,0.2c-8.1,2.9-15,7.3-20.5,12.9c-4.6,4.8-7.1,9.3-9.4,13.6
				c-2.9,5.4-5.9,11-12.5,15.6C343,265.5,335.4,267.6,326.5,267.6z M311,264.8c5.5,1.2,10.8,1.9,15.5,1.9c8.7,0,16.2-2.1,22.1-6.3
				l0.3,0.4l-0.3-0.4c6.3-4.4,9.3-9.9,12.2-15.3c2.4-4.4,4.8-9,9.6-13.8c5.5-5.6,12.3-10,20.4-13l-4.4-12.1
				c-9.9,3.6-18.4,9.1-25.3,16.1c-6,6.2-9.1,12-11.7,16.7c-2.5,4.7-4.4,8.1-8.2,10.8c-4.6,3.2-9.5,3.6-11.6,3.8
				c-1.6,0.1-4.7,0.4-15.4-1.3c-3.4-0.6-6.9-1.2-10.2-1.9L311,264.8z"/>
		</g>
		<g>
			<path class="st8" d="M388.3,281.5c-5.8-5.1-14.4-7.5-43.2-6.1c-1.7,0.1-7.1,0.4-13.3,0.8c-6.9,0.5-12.5,0.9-16.4,1.3
				c0.9,4.5,1.8,9.1,2.8,13.6c4.1-0.5,9.4-1,15.6-1.4c5.5-0.3,5.9-0.2,12-0.4c18.3-0.8,26.3-2.4,32.9,2.3c0.2,0.2,0.4,0.3,0.5,0.4
				c3.7,3.2,5.8,9.1,5.9,17.1l13.9-0.3C398.6,293.6,392.9,285.6,388.3,281.5z"/>
			<path class="st9" d="M384.6,309.6l0-0.5c-0.2-7.8-2.2-13.6-5.8-16.8c-0.1-0.1-0.3-0.3-0.5-0.4c-5.2-3.7-11.2-3.4-23.1-2.7
				c-2.8,0.2-5.9,0.3-9.4,0.5c-2.6,0.1-4.2,0.1-5.6,0.2c-1.8,0-3.3,0.1-6.4,0.3c-5.2,0.3-10.4,0.8-15.6,1.4l-0.5,0.1l-3-14.6l0.6,0
				c5.4-0.5,10.9-0.9,16.4-1.3c6.5-0.4,11.8-0.7,13.3-0.8c28.9-1.4,37.6,1.1,43.5,6.3l0,0c4.8,4.1,10.5,12.3,10.9,27.6l0,0.5
				L384.6,309.6z M365.6,287.8c5.7,0,9.8,0.7,13.4,3.3c0.2,0.2,0.4,0.3,0.6,0.4c3.7,3.3,5.8,9.1,6.1,17l12.9-0.3
				c-0.5-14.6-6-22.4-10.5-26.4l0,0c-5.7-5-14.2-7.4-42.8-6c-1.5,0.1-6.8,0.4-13.3,0.8c-5.3,0.4-10.6,0.8-15.8,1.2l2.6,12.6
				c5-0.6,10.1-1,15.2-1.3c3.1-0.2,4.6-0.2,6.4-0.3c1.4,0,3-0.1,5.6-0.2c3.5-0.1,6.6-0.3,9.4-0.5C359.2,288,362.6,287.8,365.6,287.8
				z"/>
		</g>
	</g>
	<g>
		<g>
			<path class="st9" d="M353.2,342c-8.6-15.7-13.3-24.1-22.2-25.3c-1.9-0.3-9.3-0.9-18.4,7.4c2.8,1.3,15.7,7.9,21.5,23.5
				c5.1,13.8,1.4,25.8,0.2,29.1c4-0.2,10.2-1,17.2-3.7c4.8-1.8,7.1-2.8,8.6-4.9C364.2,362.2,358.9,352.3,353.2,342z"/>
			<path class="st10" d="M332.3,378.3l0.7-2.1c1.5-4.3,4.5-15.5-0.2-28.1c-5.2-13.9-16.3-20.5-20.8-22.7l-2-1l1.6-1.5
				c8.7-7.8,16-8.2,19.6-7.7c9.7,1.3,14.5,10.1,23.3,26l0,0c5.6,10.2,11.5,20.8,6.9,27.6c-1.7,2.6-4.4,3.6-9.3,5.5
				c-5.6,2.2-11.6,3.4-17.6,3.8L332.3,378.3z M315.3,323.8c5.6,3.1,15.4,10.1,20.3,23.3c4.4,11.7,2.5,22.4,0.9,27.9
				c5-0.5,9.9-1.6,14.6-3.4c4.6-1.8,6.7-2.6,7.9-4.4c3.6-5.3-2.1-15.5-7-24.5l0,0c-8.3-15.1-12.9-23.4-21.1-24.5
				C328.5,317.9,322.6,317.9,315.3,323.8z"/>
		</g>
		<g>
			<path class="st10" d="M289,371.7c-3.2-5.4,1.5-13.3,9.8-27.4c9.1-15.3,13.6-23,20.3-23.1c8.9-0.2,15.5,12.5,22.2,25.3
				c6,11.5,10.6,20.3,6.9,26c-3,4.6-12.6,4.5-31.6,4.1C292.2,375.9,289.8,373.1,289,371.7z"/>
			<path class="st9" d="M329.6,378.2c-3.8,0-8.1-0.1-13-0.2c-25.9-0.6-27.8-3.8-28.8-5.5l0,0c-3.7-6.1,1.1-14.2,9.8-28.9
				c9.3-15.8,14-23.7,21.5-23.9c0.1,0,0.2,0,0.3,0c9.6,0,16.6,13.2,23.3,26.1c6.2,11.8,11,21.1,6.9,27.5
				C346.9,377.3,340.7,378.2,329.6,378.2z M319.3,322.6c-0.1,0-0.1,0-0.2,0c-5.8,0.2-10.2,7.6-19,22.4c-7.9,13.3-12.6,21.3-9.8,25.9
				l0,0c1.4,2.3,10.5,3.7,26.3,4.1c17.3,0.4,27.8,0.7,30.4-3.4c3.2-5-1.3-13.6-7-24.6C333.7,335.1,327.2,322.6,319.3,322.6z"/>
		</g>
	</g>
	<g>
		<path class="st8" d="M289.1,232.2c12.5,6.3,18.2,18,22.7,27.5c6.6,13.7,2.3,14.7,10.5,43.5c3.3,11.5,5.9,23.1,8.9,34.7
			c2.4,9.3,3.7,14.1,1.4,19.1c-4.3,9.2-17,11.6-21.9,12.5c-12.7,2.4-15.9-2.2-36.1-1.7c-9.9,0.2-9.3,1.4-16.9,1.1
			c-11.4-0.4-23.4-0.8-31.3-8.9c-8.3-8.5-8-21.5-7.8-30c0.3-10.8,3.1-11.3,3.9-22.7c1.1-16.1-4.2-19.6-3.6-31.9
			c1-19.4,15.3-32.9,16.4-33.8C249.1,229.1,271.7,223.5,289.1,232.2z"/>
		<path class="st9" d="M303.7,371.7c-3.2,0-6-0.4-9.1-0.9c-4.6-0.7-10.4-1.7-19.9-1.4c-4.7,0.1-6.9,0.4-8.9,0.7
			c-2.2,0.3-4,0.5-8.1,0.4c-11.3-0.4-24-0.8-32.4-9.3c-8.8-9-8.4-22.3-8.2-31c0.2-5.7,1-8.6,1.9-11.7c0.8-2.8,1.6-5.7,2-11.1
			c0.6-8.4-0.7-13.3-1.9-18c-1-4.1-2-8-1.7-13.9c1-19.8,15.2-33.4,16.8-34.9c13.2-12,36.5-19.2,55.5-9.7v0
			c13,6.5,18.8,18.5,23.4,28.1c3.5,7.3,4.1,11.2,4.9,17c0.8,5.4,1.8,12.8,5.8,26.7c2,7.1,3.8,14.3,5.5,21.3
			c1.1,4.4,2.2,8.9,3.4,13.4l0.1,0.3c2.4,9.3,3.8,14.4,1.2,19.8c-4.6,9.9-17.9,12.4-23,13.3C308.2,371.5,305.9,371.7,303.7,371.7z
			 M277.8,366.3c8,0,13.1,0.8,17.3,1.5c5.2,0.8,9,1.4,15.4,0.2c4.6-0.9,16.9-3.2,20.8-11.7c2.1-4.5,0.9-9-1.4-17.8l-0.1-0.3
			c-1.2-4.5-2.3-9-3.4-13.4c-1.7-7-3.5-14.2-5.5-21.2c-4-14.1-5.1-21.6-5.8-27.1c-0.8-5.8-1.3-9.3-4.6-16.2
			c-4.4-9.2-10-20.7-22.1-26.8v0c-17.8-9-39.7-2.2-52.1,9.2c-0.6,0.6-14.9,13.9-15.9,32.8c-0.3,5.4,0.7,9.1,1.7,13
			c1.2,4.7,2.5,10,1.9,18.9c-0.4,5.7-1.3,8.8-2.1,11.7c-0.8,2.9-1.6,5.6-1.8,11c-0.2,8.3-0.6,20.8,7.3,28.9
			c7.5,7.7,19.1,8.1,30.3,8.4c3.8,0.1,5.5-0.1,7.6-0.4c2-0.3,4.4-0.6,9.3-0.7C275.7,366.3,276.8,366.3,277.8,366.3z"/>
	</g>
	<g>
		<g>
			<path class="st9" d="M259.6,354.1c-9.3-16.9-14.3-26-23.9-27.2c-2.1-0.3-10-0.9-19.8,7.9c3,1.4,17,8.6,23.2,25.3
				c5.5,14.9,1.5,27.8,0.2,31.3c4.3-0.2,11-1,18.5-4c5.1-2,7.7-3,9.3-5.3C271.4,375.8,265.7,365.2,259.6,354.1z"/>
			<path class="st10" d="M237.1,393l0.7-2.1c1.6-4.6,4.9-16.8-0.2-30.3c-5.6-15.1-17.6-22.2-22.5-24.5l-2-1l1.6-1.5
				c9.3-8.4,17.2-8.8,21-8.3c10.4,1.4,15.6,10.8,25,28l0,0c6.1,11,12.3,22.4,7.4,29.6c-1.9,2.7-4.7,3.9-10,5.9
				c-6.1,2.3-12.4,3.7-19,4L237.1,393z M218.5,334.5c6,3.3,16.6,10.8,22,25.1c4.7,12.7,2.7,24.3,0.9,30.2c5.5-0.5,10.8-1.7,15.9-3.7
				c5-1.9,7.3-2.8,8.6-4.8c3.9-5.7-2.2-16.8-7.6-26.5l1.3-0.7l-1.3,0.7c-9-16.3-13.9-25.3-22.8-26.5C233,328,226.5,328,218.5,334.5z
				"/>
		</g>
		<g>
			<path class="st10" d="M190.3,386c-3.5-5.8,1.6-14.3,10.6-29.5c9.8-16.5,14.7-24.8,21.8-25c9.6-0.3,16.8,13.5,23.9,27.2
				c6.5,12.4,11.4,21.9,7.5,28.1c-3.2,5-13.6,4.9-34.1,4.4C193.7,390.6,191.2,387.5,190.3,386z"/>
			<path class="st9" d="M234.1,392.9c-4.1,0-8.7-0.1-14.1-0.2c-27.8-0.7-29.9-4.1-31-5.9c-3.9-6.5,1.2-15.3,10.6-31
				c10-17,15.1-25.5,23.1-25.7c0.1,0,0.2,0,0.3,0c10.3,0,17.8,14.3,25,28c6.6,12.7,11.8,22.7,7.4,29.6
				C252.6,392,246,392.9,234.1,392.9z M223,333c-0.1,0-0.1,0-0.2,0c-6.3,0.2-11.1,8.2-20.6,24.2c-8.5,14.3-13.6,23-10.6,28l0,0
				c1.9,3.2,16.6,4.2,28.5,4.5c18.7,0.4,30,0.7,32.8-3.7c3.5-5.4-1.4-14.8-7.6-26.6C238.6,346.5,231.6,333,223,333z"/>
		</g>
		<g>
			<g>
				<path class="st11" d="M222.5,344c-5.1,0-9.5,5.6-8.6,11c1,5.5,7.3,9.3,12.1,7.4c4.1-1.6,5.8-6.9,4.8-11
					C229.9,347.7,226.6,344,222.5,344z"/>
				<path class="st9" d="M223.3,363.9c-1.6,0-3.3-0.5-4.9-1.3c-2.9-1.6-4.9-4.4-5.4-7.4c-0.5-3,0.4-6.2,2.5-8.7
					c1.9-2.2,4.5-3.5,7-3.5c0,0,0,0,0,0l0,0c4.7,0,8.3,4.2,9.3,8.2c1.1,4.4-0.7,10.3-5.4,12.2C225.4,363.7,224.3,363.9,223.3,363.9z
					 M222.4,345c-2,0-4,1-5.5,2.8c-1.7,2-2.5,4.7-2.1,7c0.4,2.4,2.1,4.7,4.4,6c2.1,1.2,4.4,1.4,6.3,0.7c3.6-1.4,5.1-6.3,4.2-9.9
					C229,348.4,226,345,222.4,345C222.5,345,222.4,345,222.4,345z"/>
			</g>
			<g>
				<path class="st11" d="M207,367c-4.9,0.5-8.9,5.1-8.3,9.9c0.6,5.4,6.8,9.2,12.1,7.4c4.6-1.5,7.4-6.9,5.7-11.6
					C215.1,368.8,210.9,366.6,207,367z"/>
				<path class="st9" d="M208,385.8c-2,0-4-0.6-5.7-1.7c-2.6-1.7-4.3-4.2-4.6-7c-0.3-2.5,0.5-5,2.1-7.1c1.8-2.2,4.3-3.6,7-3.9l0,0
					c4.6-0.5,9,2.2,10.5,6.4c0.9,2.4,0.7,5.1-0.5,7.6c-1.2,2.5-3.3,4.4-5.9,5.3C210.1,385.6,209.1,385.8,208,385.8z M207.1,368
					c-2.2,0.2-4.3,1.4-5.7,3.2c-1.3,1.7-2,3.7-1.7,5.6c0.3,2.2,1.6,4.3,3.7,5.6c2.2,1.4,4.8,1.7,7.1,1c2-0.7,3.7-2.2,4.7-4.3
					c0.9-2,1.1-4.1,0.4-6.1C214.3,369.8,210.7,367.6,207.1,368L207.1,368z"/>
			</g>
			<g>
				<path class="st11" d="M233,366.2c-5.3,0.1-9.2,5.3-8.8,9.8c0.5,6,8.9,10.3,14,7.5c3.2-1.8,4.8-6.3,3.8-10.3
					C240.9,369.3,237.2,366.1,233,366.2z"/>
				<path class="st9" d="M234.5,385.4c-1.8,0-3.7-0.5-5.5-1.4c-3.4-1.8-5.5-4.7-5.8-7.9c-0.2-2.5,0.8-5.3,2.7-7.4
					c1.9-2.1,4.4-3.3,7.1-3.4c4.5-0.1,8.7,3.1,9.9,7.7c1.2,4.5-0.6,9.4-4.2,11.4C237.4,385,236,385.4,234.5,385.4z M233.2,367.2
					c-0.1,0-0.1,0-0.2,0h0c-2.1,0.1-4.1,1-5.6,2.8c-1.5,1.7-2.4,4-2.2,6c0.2,2.4,2,4.9,4.8,6.3c2.7,1.4,5.7,1.6,7.8,0.4
					c2.8-1.6,4.3-5.6,3.3-9.1C240,369.9,236.7,367.2,233.2,367.2z"/>
			</g>
		</g>
	</g>
	<g>
		<path class="st8" d="M225.6,176.1c-8.6,11-10.2,22.9-10.5,26.9c-0.4,4.4-1.7,18.7,6.9,31.1c13.8,19.6,41.3,18,45.5,17.8
			c4.3-0.3,32.5-1.9,45.5-25.5c10.3-18.6,3.7-37.5,3.1-39.4c-7.7-21.1-27.6-28.2-31.3-29.4C262.3,150.1,238.2,159.9,225.6,176.1z"/>
		<path class="st9" d="M263.2,253.4c-11.4,0-31.2-2.5-42.4-18.5c-9-12.8-7.6-27.3-7.2-32.1c0.5-5.8,2.7-17.2,10.8-27.7l1.2,0.9
			l-1.2-0.9c12-15.5,36.8-27,60.7-19.1c5.6,1.9,24.7,9.6,32.3,30.3c0.8,2.1,7.4,21.5-3.1,40.6c-12.1,21.9-36.7,25.7-46.7,26.3
			C266.3,253.3,264.8,253.4,263.2,253.4z M269.1,156.5c-17.4,0-33.5,9.1-42.3,20.5c-7.7,9.9-9.7,20.6-10.2,26.1
			c-0.4,4.5-1.7,18.2,6.7,30.1c12,17.1,34.9,17.7,44.2,17.1c9.5-0.6,32.9-4.1,44.3-24.8c9.9-17.9,3.7-36.1,3-38.2
			c-7.1-19.5-25.1-26.7-30.4-28.5C279.2,157.2,274.1,156.5,269.1,156.5z"/>
	</g>
	<g>
		<g>
			<path class="st8" d="M207.4,199.6c-2.1,3.5-0.5,8.9,3.6,10.7c4.4,1.9,9.3-1.1,10.4-5.1c0.6-2.4-0.1-5.1-1.8-6.8
				C216.5,195.2,209.9,195.5,207.4,199.6z"/>
			<path class="st9" d="M213.8,211.9c-1.1,0-2.2-0.2-3.2-0.7c-2.2-0.9-3.9-2.8-4.7-5.2c-0.8-2.4-0.6-4.9,0.6-6.9l0,0
				c1.2-2.1,3.4-3.5,6.1-3.8c2.9-0.4,5.8,0.5,7.7,2.4c2,2,2.8,5,2.1,7.8c-0.6,2.3-2.4,4.4-4.8,5.6
				C216.4,211.6,215.1,211.9,213.8,211.9z M214,197.2c-0.4,0-0.7,0-1.1,0.1c-2,0.3-3.7,1.3-4.6,2.8c-0.9,1.5-1,3.4-0.4,5.2
				c0.6,1.8,1.9,3.3,3.6,4c1.7,0.7,3.5,0.7,5.3-0.2c1.9-0.9,3.3-2.5,3.8-4.3c0.6-2-0.1-4.4-1.5-5.8
				C217.8,197.9,215.9,197.2,214,197.2z"/>
		</g>
		<g>
			<path class="st8" d="M316.7,189.9c-3.1,0.2-5.3,4-4.9,7.2c0.4,2.8,2.7,5.8,5.6,5.6c3-0.2,5-3.7,4.8-6.7
				C322.1,192.9,319.6,189.8,316.7,189.9z"/>
			<path class="st9" d="M317.2,203.7c-3.3,0-5.9-3.3-6.3-6.4c-0.3-2.1,0.4-4.5,1.8-6.2c1.1-1.3,2.5-2,3.9-2.1c3.6-0.2,6.4,3.5,6.6,7
				c0.1,1.7-0.4,3.5-1.4,5c-1.1,1.7-2.7,2.6-4.4,2.8C317.4,203.7,317.3,203.7,317.2,203.7z M316.9,190.9c0,0-0.1,0-0.1,0v0
				c-1.2,0.1-2,0.8-2.5,1.4c-1.1,1.3-1.6,3.1-1.4,4.7c0.3,2.3,2.3,4.9,4.5,4.7c1.5-0.1,2.4-1.2,2.8-1.9c0.7-1.1,1.1-2.5,1.1-3.8
				C321.1,193.7,319.2,190.9,316.9,190.9z"/>
		</g>
	</g>
	<path class="st12" d="M273,184.3c9.6-0.5,19.1-0.9,28.7-1.4c0.5,7.4,0.9,14.7,1.4,22.1c-9.6,0.7-19.1,1.5-28.7,2.2
		C274,199.6,273.5,192,273,184.3z"/>
	<g>
		<g>
			<polygon class="st9" points="244.1,200.9 243.2,200 252.8,191.2 261.9,198.6 261.1,199.6 252.8,192.8 			"/>
			<polygon class="st9" points="244,202.4 241.7,200 252.7,189.8 263.4,198.4 261.3,201 252.9,194.2 			"/>
		</g>
		<g>
			<polygon class="st9" points="281.6,200.6 280.7,199.7 287.5,192.6 295.3,198.5 294.5,199.4 287.7,194.2 			"/>
			<polygon class="st9" points="281.6,202 279.2,199.7 287.4,191.2 296.7,198.3 294.7,200.9 287.8,195.6 			"/>
		</g>
		<g>
			<path class="st9" d="M267.7,226.4c-0.3,0-0.7,0-1,0c-8.3-0.3-14.3-4-17.1-6.1l0.8-1c2.7,2.1,8.4,5.6,16.4,5.9
				c8.2,0.3,14.2-3,17.1-5l0.7,1C281.6,223.2,275.7,226.4,267.7,226.4z"/>
			<path class="st9" d="M267.7,227.4c-0.4,0-0.7,0-1.1,0c-8.6-0.3-14.8-4.1-17.7-6.4l-0.8-0.6l2-2.6l0.8,0.6c2.6,2,8.1,5.4,15.8,5.7
				c7.9,0.3,13.7-2.9,16.5-4.8l0.9-0.6l1.9,2.7l-0.9,0.6C282.2,224.1,276,227.4,267.7,227.4z"/>
		</g>
	</g>
	<g>
		<rect x="316.1" y="160.8" class="st9" width="1.7" height="29.6"/>
		<rect x="213.3" y="163.6" class="st9" width="1.7" height="33"/>
	</g>
	<g>
		<g>
			<path class="st9" d="M318.2,266.6c0-2.8-0.4-5.5-1.2-8c-0.7-2.4-1.8-4.6-3.1-6.5l0.9-0.6c1.4,2,2.5,4.3,3.3,6.8
				c0.8,2.6,1.2,5.4,1.2,8.3L318.2,266.6z"/>
			<path class="st9" d="M325.6,267c0-2.7-0.4-5.3-1.2-7.7c-0.7-2.4-1.8-4.5-3.1-6.3l0.8-0.6c1.4,1.9,2.5,4.2,3.3,6.6
				c0.8,2.6,1.2,5.3,1.2,8L325.6,267z"/>
			<path class="st9" d="M333.9,266.6c0-2.5-0.4-5-1.1-7.3c-0.7-2.2-1.7-4.2-3-6l0.8-0.6c1.3,1.8,2.4,3.9,3.1,6.3
				c0.8,2.4,1.2,5,1.2,7.6L333.9,266.6z"/>
			<path class="st9" d="M341.6,264.4c0-2.5-0.5-4.9-1.3-7.2c-0.8-2.2-2-4.2-3.5-5.9l0.8-0.7c1.6,1.8,2.8,3.9,3.7,6.2
				c0.9,2.4,1.4,4.9,1.4,7.6L341.6,264.4z"/>
			<path class="st9" d="M348.4,260.7c0-2.4-0.6-4.6-1.6-6.8c-1-2.1-2.5-4-4.3-5.6l0.7-0.8c2,1.7,3.5,3.7,4.6,5.9
				c1.1,2.3,1.7,4.8,1.8,7.3L348.4,260.7z"/>
			<path class="st9" d="M356.3,253c-1.3-2.1-2.9-3.8-4.8-5.3c-1.7-1.3-3.6-2.3-5.7-2.9l0.3-1c2.2,0.7,4.2,1.7,6,3.1
				c2,1.5,3.8,3.4,5.1,5.6L356.3,253z"/>
			<path class="st9" d="M360.3,247c-0.9-1.3-2.5-3.2-5-4.6c-2.7-1.5-5.2-1.8-6.9-1.9l0-1c1.8,0,4.6,0.4,7.4,2
				c2.7,1.5,4.4,3.5,5.3,4.9L360.3,247z"/>
			<path class="st9" d="M364.2,239.9c-1.9-1.6-3.9-2.9-6.1-3.9c-2.1-0.9-4.1-1.5-6.1-1.8l0.1-1c2.1,0.3,4.3,0.9,6.4,1.8
				c2.2,1,4.4,2.4,6.3,4L364.2,239.9z"/>
			<path class="st9" d="M368.6,234c-1.7-1.9-3.7-3.4-6.1-4.4c-2.1-0.9-4.5-1.3-6.8-1.3l0-1c2.5-0.1,5,0.4,7.2,1.4
				c2.5,1,4.7,2.7,6.4,4.7L368.6,234z"/>
			<path class="st9" d="M372.6,229.6c-1.4-2.1-3.1-3.8-5.2-5.2c-1.9-1.3-3.9-2.1-6.2-2.6l0.2-1c2.3,0.5,4.5,1.5,6.5,2.8
				c2.2,1.5,4,3.3,5.5,5.5L372.6,229.6z"/>
			<path class="st9" d="M378.3,224.8c-1.2-2.1-2.7-4-4.4-5.7c-1.6-1.6-3.4-2.8-5.2-3.7l0.5-0.9c1.9,1,3.7,2.3,5.4,3.9
				c1.8,1.7,3.3,3.7,4.6,5.9L378.3,224.8z"/>
			<path class="st9" d="M385.8,221.4c-0.8-2.5-2.1-4.9-3.8-6.8c-1.5-1.8-3.4-3.3-5.4-4.4l0.5-0.9c2.1,1.1,4.1,2.7,5.7,4.6
				c1.8,2.1,3.1,4.6,4,7.2L385.8,221.4z"/>
		</g>
		<g>
			<path class="st9" d="M209.4,274.8l-1,0c0-2.5,0.5-5,1.4-7.3c0.9-2.2,2.1-4.3,3.7-6l0.8,0.7c-1.5,1.7-2.7,3.6-3.5,5.7
				C209.8,270,209.4,272.4,209.4,274.8z"/>
			<path class="st9" d="M202.2,272.5l-1,0c0-2.5,0.5-4.9,1.5-7.2c0.9-2.2,2.3-4.2,4-5.9l0.7,0.7c-1.6,1.6-2.9,3.5-3.8,5.6
				C202.7,267.9,202.2,270.1,202.2,272.5z"/>
			<path class="st9" d="M194.8,269.2l-1,0c0-2.4,0.6-4.8,1.8-7c1.1-2.1,2.7-4.1,4.7-5.7l0.7,0.8c-1.9,1.6-3.4,3.4-4.4,5.4
				C195.4,264.8,194.8,267,194.8,269.2z"/>
			<path class="st9" d="M187.5,265.5l-1,0c0-2.3,0.8-4.6,2.3-6.8c1.4-2,3.4-3.9,5.9-5.5l0.6,0.9c-2.4,1.5-4.3,3.3-5.6,5.2
				C188.3,261.3,187.6,263.3,187.5,265.5z"/>
			<path class="st9" d="M181.1,260.2l-1,0c0-2.2,0.9-4.3,2.5-6.3c1.5-1.9,3.7-3.6,6.4-5l0.5,0.9c-2.6,1.4-4.6,3-6.1,4.8
				C181.9,256.4,181.2,258.3,181.1,260.2z"/>
			<path class="st9" d="M174.8,254.6l-1-0.4c0.9-2.2,2.4-4.2,4.2-5.8c2.4-2.1,5-3,6.8-3.4l0.2,1c-1.6,0.4-4.1,1.2-6.3,3.2
				C176.5,251,175.4,253.1,174.8,254.6z"/>
			<path class="st9" d="M170.1,248.4l-0.8-0.7c1.1-1.4,3.1-3.3,5.8-5c2.7-1.6,5-2.2,6.4-2.4l0.1,1c-1.3,0.2-3.5,0.7-6,2.2
				C173,245.2,171.2,247.1,170.1,248.4z"/>
			<path class="st9" d="M165.3,242.3l-0.8-0.7c1.8-2,4-3.7,6.4-4.7c2.3-1,4.8-1.4,7.2-1.4l0,1c-2.3-0.1-4.7,0.4-6.8,1.3
				C169.1,238.9,167,240.4,165.3,242.3z"/>
			<path class="st9" d="M162.8,236.4l-0.8-0.7c1.1-1.4,3.1-3.3,6.2-4.5c2.9-1.1,5.6-1.1,7.3-0.9l-0.1,1c-1.6-0.2-4.1-0.3-6.8,0.8
				C165.7,233.3,163.9,235.1,162.8,236.4z"/>
			<path class="st9" d="M160.1,228.9l-0.5-0.9c2.2-1.2,4.6-2.1,7-2.7c2.3-0.5,4.6-0.7,6.7-0.5l-0.1,1c-2-0.2-4.2,0-6.4,0.5
				C164.5,226.8,162.3,227.7,160.1,228.9z"/>
			<path class="st9" d="M157.8,222.7l-0.6-0.9c2.2-1.5,4.7-2.5,7.2-3.1c2.3-0.5,4.7-0.7,6.9-0.4l-0.1,1c-2.1-0.3-4.3-0.2-6.5,0.4
				C162.3,220.3,159.9,221.3,157.8,222.7z"/>
			<path class="st9" d="M156.6,215.1l-0.4-1c2.3-1,4.8-1.7,7.2-2c2.3-0.3,4.6-0.3,6.7,0.1l-0.2,1c-2-0.3-4.2-0.4-6.4-0.1
				C161.2,213.5,158.8,214.2,156.6,215.1z"/>
			<path class="st9" d="M170.5,200.3c-1.9-0.9-4.1-1.4-6.4-1.6c-2.5-0.2-5,0.1-7.5,0.8l-0.3-1c2.5-0.7,5.2-1,7.8-0.8
				c2.4,0.2,4.7,0.8,6.7,1.7L170.5,200.3z"/>
			<path class="st9" d="M156.5,206.6l-0.3-1c2.4-0.8,4.9-1.3,7.3-1.4c2.4-0.1,4.6,0.1,6.7,0.6l-0.3,1c-2-0.5-4.1-0.7-6.4-0.6
				C161.2,205.3,158.8,205.8,156.5,206.6z"/>
			<path class="st9" d="M171.9,192.7c-1.9-0.9-4.1-1.4-6.4-1.6c-2.5-0.2-5,0.1-7.5,0.8l-0.3-1c2.5-0.7,5.2-1,7.8-0.9
				c2.4,0.2,4.7,0.8,6.7,1.7L171.9,192.7z"/>
			<path class="st9" d="M323.9,290.8l-1-0.3c0.6-2.2,0.8-4.4,0.6-6.7c-0.2-2.4-0.9-4.7-2-6.8l0.9-0.5c1.1,2.3,1.8,4.7,2.1,7.2
				C324.7,286.2,324.5,288.6,323.9,290.8z"/>
			<path class="st9" d="M331.5,289.7l-1-0.3c0.7-2.1,1-4.3,0.9-6.5c-0.1-2.3-0.7-4.4-1.7-6.5l0.9-0.5c1.1,2.1,1.7,4.5,1.8,6.9
				C332.6,285.2,332.2,287.5,331.5,289.7z"/>
			<path class="st9" d="M339.3,289.3l-1-0.3c0.7-2.3,1-4.5,0.8-6.7c-0.2-2.3-0.9-4.4-2.1-6.2l0.9-0.6c1.2,2,2,4.2,2.2,6.7
				C340.4,284.5,340.1,286.9,339.3,289.3z"/>
			<path class="st9" d="M346.3,289.1l-1-0.4c1-2.6,1.5-5,1.4-7.3c-0.1-2.3-0.7-4.2-2-5.8l0.8-0.6c1.3,1.8,2.1,3.9,2.2,6.4
				C347.8,283.8,347.3,286.3,346.3,289.1z"/>
			<path class="st9" d="M353.5,289.1l-1-0.3c1-2.8,1.4-5.4,1.2-7.6c-0.1-2.3-0.9-4.2-2.2-5.7l0.8-0.7c1.4,1.6,2.3,3.8,2.4,6.3
				C355,283.5,354.5,286.2,353.5,289.1z"/>
			<path class="st9" d="M361,288.9l-0.9-0.5c0.7-1.5,1.6-3.9,1.4-7c-0.1-2.8-1-5.1-1.8-6.4l0.9-0.5c0.8,1.5,1.8,3.9,1.9,6.9
				C362.7,284.7,361.8,287.3,361,288.9z"/>
			<path class="st9" d="M366.3,288.7l-0.9-0.5c0.7-1.1,1.6-3.1,2-6c0.4-3.1,0-5.8-0.3-7.1l1-0.2c0.4,1.7,0.7,4.4,0.3,7.5
				C368,285.4,367.1,287.5,366.3,288.7z"/>
			<path class="st9" d="M371.7,289.1l-0.8-0.7c1.4-1.6,2.4-3.6,2.9-5.6c0.6-2.2,0.7-4.6,0.3-6.9l1-0.2c0.5,2.4,0.4,5-0.3,7.3
				C374.2,285.3,373.1,287.3,371.7,289.1z"/>
			<path class="st9" d="M376.8,290.8l-0.6-0.9c2.4-1.7,4.3-3.5,5.5-5.5c1.2-2,1.8-4,1.6-5.9l1-0.1c0.2,2.2-0.4,4.4-1.7,6.5
				C381.3,287.1,379.3,289,376.8,290.8z"/>
			<path class="st9" d="M380.7,293.6l-0.3-1c1.5-0.4,3.9-1.3,6.4-3.1c2.4-1.7,4-3.4,4.9-4.6l0.8,0.6c-1.4,1.8-3.1,3.5-5.1,4.9
				C384.8,292.2,382.3,293.2,380.7,293.6z"/>
			<path class="st9" d="M383.2,297.8c-0.2,0-0.5,0-0.7,0l0.1-1c1.3,0.1,3.5-0.1,6.3-1.1c3-1.1,5.3-2.8,6.3-3.6l0.7,0.8
				c-1.4,1.1-3.6,2.7-6.6,3.8C386.7,297.5,384.6,297.8,383.2,297.8z"/>
			<path class="st9" d="M387.8,304.3c-1.2,0-2.5-0.1-3.6-0.4l0.2-1c2.3,0.5,4.7,0.5,6.9,0c2.5-0.5,4.8-1.6,6.8-3.2l0.6,0.8
				c-2.1,1.7-4.6,2.9-7.2,3.4C390.3,304.2,389,304.3,387.8,304.3z"/>
		</g>
		<g>
			<path class="st9" d="M214.6,299.3c-0.9-2.5-1.3-4.9-1.2-7.3c0.1-2.5,0.8-4.9,2-7l0.9,0.5c-1.1,2-1.8,4.1-1.9,6.5
				c-0.1,2.3,0.3,4.6,1.1,6.9L214.6,299.3z"/>
			<path class="st9" d="M207.2,298.1c-0.4-2.1-0.5-4.4-0.3-6.8c0.2-2.5,0.8-5,1.7-7.5l1,0.4c-0.9,2.4-1.4,4.8-1.6,7.2
				c-0.2,2.3-0.1,4.5,0.3,6.5L207.2,298.1z"/>
			<path class="st9" d="M202.5,298.9c-1-2-1.6-4.3-1.9-6.7c-0.3-2.5-0.2-5.1,0.3-7.7l1,0.2c-0.5,2.5-0.5,5-0.3,7.4
				c0.3,2.3,0.9,4.5,1.8,6.4L202.5,298.9z"/>
			<path class="st9" d="M199.1,302.7c-1.9-1.5-3.5-3.3-4.8-5.4c-1.3-2.2-2.3-4.6-2.8-7.1l1-0.2c0.5,2.4,1.4,4.7,2.7,6.8
				c1.2,2,2.8,3.7,4.5,5.1L199.1,302.7z"/>
			<path class="st9" d="M196.8,308.6c-2.6-1.1-4.9-2.5-6.8-4.3c-1.9-1.9-3.3-4.1-4-6.6l1-0.3c0.7,2.3,2,4.4,3.8,6.1
				c1.7,1.7,3.9,3.1,6.4,4.1L196.8,308.6z"/>
			<path class="st9" d="M193.3,314.8c-2.2-0.5-4.3-1.4-6.3-2.6c-2.2-1.3-4-3.1-5.6-5.1l0.8-0.6c1.5,1.9,3.2,3.6,5.3,4.8
				c1.8,1.1,3.8,1.9,5.9,2.4L193.3,314.8z"/>
			<path class="st9" d="M185.9,323.3c-1.4-0.9-3.4-2.5-5.2-5.2c-1.3-2-2.4-4.3-3-6.6l1-0.3c0.6,2.2,1.5,4.4,2.8,6.3
				c1.7,2.6,3.6,4.1,4.9,5L185.9,323.3z"/>
			<path class="st9" d="M176.8,327.7c-1.4-1.7-2.5-3.6-3.4-5.8c-0.9-2.3-1.6-4.7-1.9-7.3l1-0.1c0.3,2.5,0.9,4.8,1.8,7
				c0.9,2.1,2,4,3.3,5.5L176.8,327.7z"/>
			<path class="st9" d="M167.6,329.2c-1-1.9-1.7-4.2-2-6.5c-0.3-2.5-0.1-5.2,0.5-7.6l1,0.3c-0.6,2.4-0.8,4.9-0.5,7.3
				c0.3,2.2,0.9,4.3,1.9,6.1L167.6,329.2z"/>
			<path class="st9" d="M158.6,329.4c-0.8-2.2-1.2-4.6-1.2-7c0-2.6,0.6-5.2,1.6-7.6l1,0.4c-1,2.3-1.5,4.7-1.5,7.2
				c0,2.3,0.4,4.5,1.2,6.6L158.6,329.4z"/>
			<path class="st9" d="M150.5,327.8c-0.4-2.1-0.4-4.4-0.1-6.7c0.3-2.4,1-4.8,2-7.2l1,0.4c-1,2.3-1.6,4.6-1.9,6.9
				c-0.3,2.2-0.3,4.4,0.1,6.4L150.5,327.8z"/>
		</g>
	</g>
	<g>
		<path class="st9" d="M258,273.3c-12.6,0-25.2-2.3-37.1-6.8l1.1-3.1c14.9,5.6,31.1,7.7,46.7,6c14.3-1.6,27.9-6.1,40.5-13.4l1.5,2.9
			c-13,7.6-27,12.2-41.7,13.8C265.4,273.2,261.7,273.3,258,273.3z"/>
		<g>
			<path class="st9" d="M259.2,287.9c-13.6,0-27.3-2.2-40.2-6.4l1.2-2.9c16.2,5.3,33.7,7.2,50.7,5.6c15.5-1.5,30.3-5.7,44-12.6
				l1.7,2.7c-14.1,7.1-29.3,11.5-45.3,13C267.3,287.7,263.3,287.9,259.2,287.9z"/>
		</g>
	</g>
	<g>
		<ellipse class="st9" cx="229.9" cy="262.9" rx="1.5" ry="1.4"/>
		<ellipse class="st9" cx="234.9" cy="252" rx="1.4" ry="1.2"/>
		<ellipse class="st9" cx="299.4" cy="247.1" rx="1.1" ry="1.2"/>
		<ellipse class="st9" cx="304.6" cy="256" rx="1.1" ry="1"/>
		<ellipse class="st9" cx="308.3" cy="267.8" rx="1.2" ry="1.2"/>
		<ellipse class="st9" cx="301.8" cy="270.4" rx="1.1" ry="1.2"/>
		<ellipse class="st9" cx="294.6" cy="273.3" rx="1.2" ry="1.2"/>
		<ellipse class="st9" cx="286.8" cy="275.4" rx="1.2" ry="1.1"/>
		<ellipse class="st9" cx="279" cy="277.6" rx="1.2" ry="1.1"/>
		<ellipse class="st9" cx="271" cy="278.7" rx="1.1" ry="1.1"/>
		<ellipse class="st9" cx="263.5" cy="279.2" rx="1.1" ry="1.1"/>
		<ellipse class="st9" cx="255.7" cy="279.2" rx="1.1" ry="1.1"/>
		<circle class="st9" cx="247.4" cy="278.7" r="1.2"/>
		<ellipse class="st9" cx="239.1" cy="277.4" rx="1.1" ry="1.1"/>
		<ellipse class="st9" cx="231.9" cy="275.9" rx="1.1" ry="1.1"/>
		<ellipse class="st9" cx="225" cy="274" rx="1.3" ry="1.3"/>
		<ellipse class="st9" cx="312.3" cy="282" rx="1.2" ry="1.2"/>
		<ellipse class="st9" cx="225.3" cy="289.3" rx="1.2" ry="1.2"/>
	</g>
</g>
<g id="Box">
	<g>
		<path class="st13" d="M422.6,354.9c-18.3-4.5-36.6-9-54.9-13.6c0.3,16.6,0.7,33.2,1,49.8c16.3,1.6,32.7,3.3,49,4.9
			C419.3,382.4,420.9,368.6,422.6,354.9z"/>
		<path class="st9" d="M418.5,397.1l-50.9-5.1l-1-51.9l57,14.1L418.5,397.1z M369.6,390.2l47.2,4.7l4.7-39.3l-52.8-13L369.6,390.2z"
			/>
	</g>
	<g>
		<polygon class="st13" points="278.5,358.4 367.6,341.4 368.6,391.1 280.2,426.6 		"/>
		<path class="st9" d="M279.2,428.1l-1.8-70.5l91.2-17.4l1,51.6l-0.6,0.3L279.2,428.1z M279.5,359.2l1.7,66l86.5-34.7l-0.9-47.9
			L279.5,359.2z"/>
	</g>
	<g>
		<polygon class="st13" points="278.5,358.4 280.2,426.6 333.4,450.3 333.4,375.1 		"/>
		<path class="st9" d="M334.4,451.8l-55.2-24.5l0-0.6l-1.8-69.6l56.9,17.4V451.8z M281.2,426l51.3,22.8v-72.9l-52.9-16.1L281.2,426z
			"/>
	</g>
	<g>
		<polygon class="st13" points="422.6,354.9 420.9,423.4 333.4,450.3 333.4,375.1 		"/>
		<path class="st9" d="M332.4,451.6v-77.3l91.2-20.7l-1.8,70.5L332.4,451.6z M334.4,375.9v73l85.5-26.3l1.7-66.5L334.4,375.9z"/>
	</g>
	<path class="st14" d="M382.8,414.1c1.8-0.9,3.5-1.6,5.2-2.7c3-1.9,4.3-5.1,4.7-8.7c0.3-3,0.3-6-1.4-8.4c-0.7-1-0.9-1.9-0.8-3.3
		c0.2-1.5-0.3-3-0.5-4.4c-0.1-0.6-0.5-0.8-1-0.6c-1.5,0.8-3,1.6-4.4,2.6c-0.8,0.5-1.4,0.9-2.3,0.8c-3.3-0.4-6.5,0.1-9.7,1.4
		c-0.4,0.1-0.8,0.1-1.2-0.1c-1.4-0.5-2.8-1.2-4.3-1.6c-1.4-0.4-1.6-0.1-1.9,1.5c-0.3,1.7-0.3,3.4,0.1,5c0.1,0.3,0.1,0.7,0,0.9
		c-2.5,3.9-2.3,7.9-1.2,11.9c1.3,4.7,4.6,6.3,8.7,6.6c0.4,0,0.9,0,1.1,0.1c-0.3,1.1-0.6,2.3-1,3.4c-0.1,0.3-0.4,0.5-0.6,0.7
		c-2.7,1.3-4.7,1-6.2-1.5c-0.8-1.4-1.9-2.2-3.5-2.3c-0.4,0-0.8,0.2-1.2,0.3c0,0.1-0.1,0.2-0.1,0.3c0.3,0.3,0.5,0.7,0.9,0.9
		c1.3,0.7,2.1,1.8,2.6,3.3c0.8,2.3,2.5,3.1,4.6,3c1.1-0.1,2.2-0.3,3.4-0.5c0,1.6,0.1,3.3,0.1,5c0,0.8-0.8,1.4-1.7,1.1
		c-1.2-0.4-2.5-0.7-3.7-1.3c-8.3-3.9-13.2-13.3-12.7-23.8c0.7-12.1,8.3-22.7,18.6-26.1c12.3-4,24.4,3.8,27.2,17.5
		c2.4,12.2-3.5,25.6-13.9,31.4c-0.2,0.1-0.4,0.3-0.7,0.4c-1,0.4-1.6,0-1.7-1.2c-0.1-2.2-0.1-4.4-0.2-6.7
		C384.2,417,383.9,415.2,382.8,414.1z"/>
</g>
<g id="Issues">
	<path class="st1" d="M129.5,291.6c-13,0-23.5,10.5-23.5,23.5c0,13,10.5,23.5,23.5,23.5s23.5-10.5,23.5-23.5
		C153,302.1,142.5,291.6,129.5,291.6z M134.8,305.5c0.4-0.4,1-0.4,1.4,0l2.8,2.8c0.4,0.4,0.4,1,0,1.4h0c-0.4,0.4-1,0.4-1.4,0
		l-2.8-2.8C134.4,306.5,134.4,305.9,134.8,305.5z M117.8,317.1v-4c0-0.6,0.5-1,1-1c0.6,0,1,0.5,1,1v4c0,0.6-0.5,1-1,1
		C118.3,318.1,117.8,317.7,117.8,317.1z M124.1,324.7c-0.4,0.4-1,0.4-1.4,0l-2.8-2.8c-0.4-0.4-0.4-1,0-1.4h0c0.4-0.4,1-0.4,1.4,0
		l2.8,2.8C124.5,323.7,124.5,324.3,124.1,324.7z M124.1,306.9l-2.8,2.8c-0.4,0.4-1,0.4-1.4,0h0c-0.4-0.4-0.4-1,0-1.4l2.8-2.8
		c0.4-0.4,1-0.4,1.4,0C124.5,305.9,124.5,306.5,124.1,306.9z M132.5,325.7c0,0.6-0.5,1-1,1l-4,0c-0.6,0-1-0.5-1-1v0c0-0.6,0.5-1,1-1
		l4,0C132,324.7,132.5,325.1,132.5,325.7L132.5,325.7z M131.4,305.5h-4c-0.6,0-1-0.5-1-1s0.5-1,1-1h4c0.6,0,1,0.5,1,1
		S132,305.5,131.4,305.5z M139.1,321.9l-2.8,2.8c-0.4,0.4-1,0.4-1.4,0c-0.4-0.4-0.4-1,0-1.4l2.8-2.8c0.4-0.4,1-0.4,1.4,0h0
		C139.5,320.9,139.5,321.5,139.1,321.9z M141.1,317.1c0,0.6-0.5,1-1,1c-0.6,0-1-0.5-1-1v-4c0-0.6,0.5-1,1-1c0.6,0,1,0.5,1,1V317.1z"
		/>
	<g>
		<g>
			<g>
				<g>
					<path class="st0" d="M171.5,156.7c-5.3,0-9.6,4.3-9.6,9.6s4.3,9.6,9.6,9.6c5.3,0,9.6-4.3,9.6-9.6S176.8,156.7,171.5,156.7z
						 M171.5,168.5c-1.2,0-2.2-1-2.2-2.2c0-1.2,1-2.2,2.2-2.2c1.2,0,2.2,1,2.2,2.2C173.7,167.5,172.7,168.5,171.5,168.5z"/>
				</g>
			</g>
			<g>
				<g>
					<path class="st0" d="M171.5,142.7c-13,0-23.5,10.5-23.5,23.5c0,13,10.5,23.5,23.5,23.5s23.5-10.5,23.5-23.5
						C195,153.3,184.5,142.7,171.5,142.7z M171.5,178.1c-6.5,0-11.8-5.3-11.8-11.8c0-6.5,5.3-11.8,11.8-11.8
						c6.5,0,11.8,5.3,11.8,11.8C183.3,172.8,178,178.1,171.5,178.1z"/>
				</g>
			</g>
		</g>
	</g>
	<g>
		<g>
			<g>
				<g>
					<path class="st2" d="M394.2,305.8c-13,0-23.5,10.5-23.5,23.5c0,13,10.5,23.5,23.5,23.5c13,0,23.5-10.5,23.5-23.5
						C417.8,316.4,407.2,305.8,394.2,305.8z M394.2,341.2c-6.5,0-11.8-5.3-11.8-11.8s5.3-11.8,11.8-11.8c6.5,0,11.8,5.3,11.8,11.8
						S400.8,341.2,394.2,341.2z"/>
				</g>
			</g>
			<g>
				<g>
					<path class="st2" d="M394.2,319.8c-5.3,0-9.6,4.3-9.6,9.6c0,5.3,4.3,9.6,9.6,9.6c5.3,0,9.6-4.3,9.6-9.6
						C403.9,324.1,399.6,319.8,394.2,319.8z M399,326.3l-7.9,7.9c-0.5,0.5-1.2,0.5-1.7,0c-0.5-0.5-0.5-1.2,0-1.7l7.9-7.9
						c0.5-0.5,1.2-0.5,1.7,0C399.5,325,399.5,325.8,399,326.3z"/>
				</g>
			</g>
		</g>
	</g>
	<g>
		<g>
			<g>
				<g>
					<path class="st3" d="M406,193.9c-5.3,0-9.6,4.3-9.6,9.6c0,5.3,4.3,9.6,9.6,9.6c5.3,0,9.6-4.3,9.6-9.6
						C415.7,198.3,411.4,193.9,406,193.9z M410.8,201.8l-5.1,5.1l0,0c-0.2,0.2-0.5,0.3-0.8,0.3c-0.3,0-0.6-0.1-0.8-0.3l0,0l-2.8-2.8
						c-0.4-0.4-0.4-1.1,0-1.5c0.4-0.4,1.1-0.4,1.5,0l2.1,2.1l4.4-4.4c0.4-0.4,1.1-0.4,1.5,0S411.2,201.4,410.8,201.8z"/>
				</g>
			</g>
			<g>
				<g>
					<path class="st3" d="M406,180c-13,0-23.5,10.5-23.5,23.5c0,13,10.5,23.5,23.5,23.5c13,0,23.5-10.5,23.5-23.5
						C429.6,190.6,419,180,406,180z M406,215.4c-6.5,0-11.8-5.3-11.8-11.8c0-6.5,5.3-11.8,11.8-11.8c6.5,0,11.8,5.3,11.8,11.8
						C417.9,210.1,412.6,215.4,406,215.4z"/>
				</g>
			</g>
		</g>
	</g>
</g>
</svg>
